<svg width="245" height="47" viewBox="0 0 245 47" fill="none" xmlns="http://www.w3.org/2000/svg">
<path d="M35.496 37.296H16.552L13.032 46H0.104L19.88 1.2H32.36L52.2 46H39.016L35.496 37.296ZM31.784 27.952L26.024 13.616L20.264 27.952H31.784ZM90.2245 22.64C92.7845 23.536 94.7898 24.944 96.2405 26.864C97.6912 28.7413 98.4165 31.024 98.4165 33.712C98.4165 37.6373 96.8378 40.6667 93.6805 42.8C90.5232 44.9333 85.9578 46 79.9845 46H55.7925V1.2H78.7045C84.4218 1.2 88.7738 2.26666 91.7605 4.4C94.7472 6.49067 96.2405 9.328 96.2405 12.912C96.2405 15.0453 95.7072 16.9653 94.6405 18.672C93.6165 20.336 92.1445 21.6587 90.2245 22.64ZM68.3365 10.352V18.992H77.0405C81.3072 18.992 83.4405 17.5413 83.4405 14.64C83.4405 11.7813 81.3072 10.352 77.0405 10.352H68.3365ZM78.9605 36.848C83.3978 36.848 85.6165 35.3333 85.6165 32.304C85.6165 29.2747 83.3978 27.76 78.9605 27.76H68.3365V36.848H78.9605ZM127.572 46.896C122.836 46.896 118.569 45.8933 114.772 43.888C111.017 41.8827 108.052 39.1093 105.876 35.568C103.743 32.0267 102.676 28.0373 102.676 23.6C102.676 19.1627 103.743 15.1733 105.876 11.632C108.052 8.09067 111.017 5.31733 114.772 3.312C118.569 1.30666 122.836 0.303997 127.572 0.303997C132.308 0.303997 136.553 1.30666 140.308 3.312C144.105 5.31733 147.071 8.09067 149.204 11.632C151.38 15.1733 152.468 19.1627 152.468 23.6C152.468 28.0373 151.38 32.0267 149.204 35.568C147.071 39.1093 144.105 41.8827 140.308 43.888C136.553 45.8933 132.308 46.896 127.572 46.896ZM127.572 36.4C129.833 36.4 131.881 35.8667 133.716 34.8C135.551 33.7333 137.001 32.24 138.068 30.32C139.135 28.3573 139.668 26.1173 139.668 23.6C139.668 21.0827 139.135 18.864 138.068 16.944C137.001 14.9813 135.551 13.4667 133.716 12.4C131.881 11.3333 129.833 10.8 127.572 10.8C125.311 10.8 123.263 11.3333 121.428 12.4C119.593 13.4667 118.143 14.9813 117.076 16.944C116.009 18.864 115.476 21.0827 115.476 23.6C115.476 26.1173 116.009 28.3573 117.076 30.32C118.143 32.24 119.593 33.7333 121.428 34.8C123.263 35.8667 125.311 36.4 127.572 36.4ZM179.777 46.896C173.121 46.896 167.937 45.0827 164.225 41.456C160.556 37.8293 158.721 32.688 158.721 26.032V1.2H171.393V25.648C171.393 32.816 174.23 36.4 179.905 36.4C185.537 36.4 188.353 32.816 188.353 25.648V1.2H200.833V26.032C200.833 32.688 198.977 37.8293 195.265 41.456C191.596 45.0827 186.433 46.896 179.777 46.896ZM218.266 11.248H204.506V1.2H244.634V11.248H230.938V46H218.266V11.248Z" fill="white"/>
<path d="M35.496 37.296L36.4231 36.9211L36.1703 36.296H35.496V37.296ZM16.552 37.296V36.296H15.8777L15.6249 36.9211L16.552 37.296ZM13.032 46V47H13.7063L13.9591 46.3749L13.032 46ZM0.104 46L-0.810833 45.5962L-1.43052 47H0.104V46ZM19.88 1.2V0.199997H19.2283L18.9652 0.796164L19.88 1.2ZM32.36 1.2L33.2743 0.795071L33.0108 0.199997H32.36V1.2ZM52.2 46V47H53.7365L53.1143 45.5951L52.2 46ZM39.016 46L38.0889 46.3749L38.3417 47H39.016V46ZM31.784 27.952V28.952H33.2635L32.7119 27.5792L31.784 27.952ZM26.024 13.616L26.9519 13.2432L26.024 10.9337L25.0961 13.2432L26.024 13.616ZM20.264 27.952L19.3361 27.5792L18.7845 28.952H20.264V27.952ZM35.496 36.296H16.552V38.296H35.496V36.296ZM15.6249 36.9211L12.1049 45.6251L13.9591 46.3749L17.4791 37.6709L15.6249 36.9211ZM13.032 45H0.104V47H13.032V45ZM1.01883 46.4038L20.7948 1.60383L18.9652 0.796164L-0.810833 45.5962L1.01883 46.4038ZM19.88 2.2H32.36V0.199997H19.88V2.2ZM31.4457 1.60492L51.2857 46.4049L53.1143 45.5951L33.2743 0.795071L31.4457 1.60492ZM52.2 45H39.016V47H52.2V45ZM39.9431 45.6251L36.4231 36.9211L34.5689 37.6709L38.0889 46.3749L39.9431 45.6251ZM32.7119 27.5792L26.9519 13.2432L25.0961 13.9888L30.8561 28.3248L32.7119 27.5792ZM25.0961 13.2432L19.3361 27.5792L21.1919 28.3248L26.9519 13.9888L25.0961 13.2432ZM20.264 28.952H31.784V26.952H20.264V28.952ZM90.2245 22.64L89.7694 21.7496L87.69 22.8124L89.8941 23.5839L90.2245 22.64ZM96.2405 26.864L95.4426 27.4669L95.4492 27.4754L96.2405 26.864ZM93.6805 42.8L94.2404 43.6286L93.6805 42.8ZM55.7925 46H54.7925V47H55.7925V46ZM55.7925 1.2V0.199997H54.7925V1.2H55.7925ZM91.7605 4.4L91.1792 5.21377L91.187 5.21923L91.7605 4.4ZM94.6405 18.672L93.7925 18.142L93.7888 18.1479L94.6405 18.672ZM68.3365 10.352V9.352H67.3365V10.352H68.3365ZM68.3365 18.992H67.3365V19.992H68.3365V18.992ZM68.3365 27.76V26.76H67.3365V27.76H68.3365ZM68.3365 36.848H67.3365V37.848H68.3365V36.848ZM89.8941 23.5839C92.2926 24.4233 94.1255 25.7236 95.4426 27.4668L97.0384 26.2612C95.4542 24.1644 93.2764 22.6487 90.5549 21.6961L89.8941 23.5839ZM95.4492 27.4754C96.7468 29.1547 97.4165 31.2144 97.4165 33.712H99.4165C99.4165 30.8336 98.6355 28.328 97.0318 26.2526L95.4492 27.4754ZM97.4165 33.712C97.4165 37.3172 95.993 40.0307 93.1206 41.9714L94.2404 43.6286C97.6827 41.3027 99.4165 37.9575 99.4165 33.712H97.4165ZM93.1206 41.9714C90.1981 43.9461 85.8629 45 79.9845 45V47C86.0528 47 90.8483 45.9205 94.2404 43.6286L93.1206 41.9714ZM79.9845 45H55.7925V47H79.9845V45ZM56.7925 46V1.2H54.7925V46H56.7925ZM55.7925 2.2H78.7045V0.199997H55.7925V2.2ZM78.7045 2.2C84.3216 2.2 88.433 3.25209 91.1793 5.21373L92.3417 3.58626C89.1147 1.28124 84.522 0.199997 78.7045 0.199997V2.2ZM91.187 5.21923C93.9119 7.12662 95.2405 9.66096 95.2405 12.912H97.2405C97.2405 8.99504 95.5825 5.85472 92.334 3.58077L91.187 5.21923ZM95.2405 12.912C95.2405 14.8697 94.7538 16.6039 93.7925 18.142L95.4885 19.202C96.6606 17.3267 97.2405 15.221 97.2405 12.912H95.2405ZM93.7888 18.1479C92.8707 19.6399 91.5436 20.8428 89.7694 21.7496L90.6796 23.5304C92.7454 22.4746 94.3623 21.0321 95.4922 19.1961L93.7888 18.1479ZM67.3365 10.352V18.992H69.3365V10.352H67.3365ZM68.3365 19.992H77.0405V17.992H68.3365V19.992ZM77.0405 19.992C79.2559 19.992 81.0938 19.6211 82.4028 18.7309C83.7809 17.7939 84.4405 16.3736 84.4405 14.64H82.4405C82.4405 15.8077 82.0335 16.5635 81.2782 17.0771C80.4539 17.6376 79.0918 17.992 77.0405 17.992V19.992ZM84.4405 14.64C84.4405 12.9215 83.7758 11.517 82.3971 10.5932C81.0894 9.71704 79.254 9.352 77.0405 9.352V11.352C79.0937 11.352 80.4583 11.7016 81.2839 12.2548C82.0385 12.7604 82.4405 13.4998 82.4405 14.64H84.4405ZM77.0405 9.352H68.3365V11.352H77.0405V9.352ZM78.9605 37.848C81.2618 37.848 83.1643 37.4609 84.5163 36.5379C85.9368 35.5681 86.6165 34.0999 86.6165 32.304H84.6165C84.6165 33.5374 84.1868 34.3412 83.3887 34.8861C82.522 35.4778 81.0966 35.848 78.9605 35.848V37.848ZM86.6165 32.304C86.6165 30.5081 85.9368 29.0399 84.5163 28.0701C83.1643 27.1471 81.2618 26.76 78.9605 26.76V28.76C81.0966 28.76 82.522 29.1302 83.3887 29.7219C84.1868 30.2668 84.6165 31.0706 84.6165 32.304H86.6165ZM78.9605 26.76H68.3365V28.76H78.9605V26.76ZM67.3365 27.76V36.848H69.3365V27.76H67.3365ZM68.3365 37.848H78.9605V35.848H68.3365V37.848ZM114.772 43.888L114.301 44.7701L114.305 44.7723L114.772 43.888ZM105.876 35.568L105.019 36.084L105.024 36.0915L105.876 35.568ZM105.876 11.632L105.024 11.1085L105.019 11.116L105.876 11.632ZM114.772 3.312L114.305 2.42772L114.301 2.42992L114.772 3.312ZM140.308 3.312L139.837 4.19408L139.841 4.19627L140.308 3.312ZM149.204 11.632L148.347 12.148L148.352 12.1555L149.204 11.632ZM149.204 35.568L148.352 35.0445L148.347 35.052L149.204 35.568ZM140.308 43.888L139.841 43.0037L139.837 43.0059L140.308 43.888ZM133.716 34.8L134.219 35.6645L133.716 34.8ZM138.068 30.32L138.942 30.8057L138.947 30.7975L138.068 30.32ZM138.068 16.944L137.189 17.4215L137.194 17.4296L138.068 16.944ZM133.716 12.4L134.219 11.5355L133.716 12.4ZM121.428 12.4L120.925 11.5355H120.925L121.428 12.4ZM117.076 16.944L117.95 17.4297L117.955 17.4215L117.076 16.944ZM117.076 30.32L116.197 30.7975L116.202 30.8056L117.076 30.32ZM121.428 34.8L121.931 33.9355L121.428 34.8ZM127.572 45.896C122.982 45.896 118.878 44.9255 115.239 43.0037L114.305 44.7723C118.261 46.8612 122.69 47.896 127.572 47.896V45.896ZM115.243 43.0059C111.641 41.0821 108.809 38.4308 106.728 35.0445L105.024 36.0915C107.295 39.7878 110.394 42.6833 114.301 44.7701L115.243 43.0059ZM106.733 35.052C104.7 31.6779 103.676 27.8693 103.676 23.6H101.676C101.676 28.2053 102.785 32.3755 105.019 36.084L106.733 35.052ZM103.676 23.6C103.676 19.3307 104.7 15.5221 106.733 12.148L105.019 11.116C102.785 14.8245 101.676 18.9947 101.676 23.6H103.676ZM106.728 12.1555C108.809 8.76916 111.641 6.11792 115.243 4.19407L114.301 2.42992C110.394 4.51675 107.295 7.41217 105.024 11.1085L106.728 12.1555ZM115.239 4.19627C118.878 2.27452 122.982 1.304 127.572 1.304V-0.696003C122.69 -0.696003 118.261 0.338804 114.305 2.42773L115.239 4.19627ZM127.572 1.304C132.162 1.304 136.243 2.27457 139.837 4.19407L140.779 2.42992C136.864 0.338757 132.454 -0.696003 127.572 -0.696003V1.304ZM139.841 4.19627C143.484 6.12004 146.312 8.76881 148.347 12.148L150.061 11.116C147.83 7.41253 144.727 4.51462 140.775 2.42773L139.841 4.19627ZM148.352 12.1555C150.425 15.5287 151.468 19.3345 151.468 23.6H153.468C153.468 18.9908 152.335 14.818 150.056 11.1085L148.352 12.1555ZM151.468 23.6C151.468 27.8655 150.425 31.6713 148.352 35.0445L150.056 36.0915C152.335 32.382 153.468 28.2092 153.468 23.6H151.468ZM148.347 35.052C146.312 38.4312 143.484 41.08 139.841 43.0037L140.775 44.7723C144.727 42.6854 147.83 39.7875 150.061 36.084L148.347 35.052ZM139.837 43.0059C136.243 44.9254 132.162 45.896 127.572 45.896V47.896C132.454 47.896 136.864 46.8612 140.779 44.7701L139.837 43.0059ZM127.572 37.4C129.998 37.4 132.221 36.8258 134.219 35.6645L133.213 33.9355C131.541 34.9076 129.669 35.4 127.572 35.4V37.4ZM134.219 35.6645C136.215 34.5041 137.791 32.8773 138.942 30.8056L137.194 29.8344C136.211 31.6027 134.887 32.9626 133.213 33.9355L134.219 35.6645ZM138.947 30.7975C140.103 28.6705 140.668 26.2626 140.668 23.6H138.668C138.668 25.972 138.167 28.0442 137.189 29.8425L138.947 30.7975ZM140.668 23.6C140.668 20.9378 140.103 18.5474 138.942 16.4584L137.194 17.4296C138.167 19.1806 138.668 21.2275 138.668 23.6H140.668ZM138.947 16.4665C137.797 14.3516 136.22 12.6992 134.219 11.5355L133.213 13.2645C134.881 14.2341 136.205 15.611 137.189 17.4215L138.947 16.4665ZM134.219 11.5355C132.221 10.3742 129.998 9.8 127.572 9.8V11.8C129.669 11.8 131.541 12.2924 133.213 13.2645L134.219 11.5355ZM127.572 9.8C125.146 9.8 122.923 10.3742 120.925 11.5355L121.931 13.2645C123.603 12.2924 125.475 11.8 127.572 11.8V9.8ZM120.925 11.5355C118.924 12.6992 117.347 14.3516 116.197 16.4665L117.955 17.4215C118.939 15.611 120.263 14.2341 121.931 13.2645L120.925 11.5355ZM116.202 16.4584C115.041 18.5474 114.476 20.9378 114.476 23.6H116.476C116.476 21.2275 116.977 19.1806 117.95 17.4296L116.202 16.4584ZM114.476 23.6C114.476 26.2626 115.041 28.6705 116.197 30.7975L117.955 29.8425C116.977 28.0442 116.476 25.972 116.476 23.6H114.476ZM116.202 30.8056C117.353 32.8773 118.929 34.5041 120.925 35.6645L121.931 33.9355C120.257 32.9626 118.933 31.6027 117.95 29.8344L116.202 30.8056ZM120.925 35.6645C122.923 36.8258 125.146 37.4 127.572 37.4V35.4C125.475 35.4 123.603 34.9076 121.931 33.9355L120.925 35.6645ZM164.225 41.456L163.522 42.1672L163.526 42.1713L164.225 41.456ZM158.721 1.2V0.199997H157.721V1.2H158.721ZM171.393 1.2H172.393V0.199997H171.393V1.2ZM188.353 1.2V0.199997H187.353V1.2H188.353ZM200.833 1.2H201.833V0.199997H200.833V1.2ZM195.265 41.456L194.566 40.7407L194.562 40.7448L195.265 41.456ZM179.777 45.896C173.305 45.896 168.4 44.1373 164.924 40.7407L163.526 42.1713C167.474 46.028 172.937 47.896 179.777 47.896V45.896ZM164.928 40.7448C161.5 37.3562 159.721 32.5019 159.721 26.032H157.721C157.721 32.8741 159.612 38.3024 163.522 42.1672L164.928 40.7448ZM159.721 26.032V1.2H157.721V26.032H159.721ZM158.721 2.2H171.393V0.199997H158.721V2.2ZM170.393 1.2V25.648H172.393V1.2H170.393ZM170.393 25.648C170.393 29.337 171.119 32.2885 172.737 34.3327C174.391 36.4215 176.843 37.4 179.905 37.4V35.4C177.292 35.4 175.489 34.5865 174.305 33.0913C173.086 31.5515 172.393 29.127 172.393 25.648H170.393ZM179.905 37.4C182.948 37.4 185.385 36.4196 187.027 34.3298C188.633 32.2859 189.353 29.3357 189.353 25.648H187.353C187.353 29.1283 186.665 31.5541 185.455 33.0942C184.281 34.5884 182.494 35.4 179.905 35.4V37.4ZM189.353 25.648V1.2H187.353V25.648H189.353ZM188.353 2.2H200.833V0.199997H188.353V2.2ZM199.833 1.2V26.032H201.833V1.2H199.833ZM199.833 26.032C199.833 32.4987 198.035 37.3516 194.566 40.7407L195.964 42.1713C199.919 38.3071 201.833 32.8773 201.833 26.032H199.833ZM194.562 40.7448C191.13 44.1371 186.249 45.896 179.777 45.896V47.896C186.617 47.896 192.062 46.0282 195.968 42.1672L194.562 40.7448ZM218.266 11.248H219.266V10.248H218.266V11.248ZM204.506 11.248H203.506V12.248H204.506V11.248ZM204.506 1.2V0.199997H203.506V1.2H204.506ZM244.634 1.2H245.634V0.199997H244.634V1.2ZM244.634 11.248V12.248H245.634V11.248H244.634ZM230.938 11.248V10.248H229.938V11.248H230.938ZM230.938 46V47H231.938V46H230.938ZM218.266 46H217.266V47H218.266V46ZM218.266 10.248H204.506V12.248H218.266V10.248ZM205.506 11.248V1.2H203.506V11.248H205.506ZM204.506 2.2H244.634V0.199997H204.506V2.2ZM243.634 1.2V11.248H245.634V1.2H243.634ZM244.634 10.248H230.938V12.248H244.634V10.248ZM229.938 11.248V46H231.938V11.248H229.938ZM230.938 45H218.266V47H230.938V45ZM219.266 46V11.248H217.266V46H219.266Z" fill="white"/>
</svg>
