<svg width="309" height="47" viewBox="0 0 309 47" fill="none" xmlns="http://www.w3.org/2000/svg">
<path d="M20.96 1.2C25.0133 1.2 28.5333 1.88266 31.52 3.248C34.5067 4.57066 36.8107 6.49067 38.432 9.008C40.0533 11.4827 40.864 14.4053 40.864 17.776C40.864 21.1467 40.0533 24.0693 38.432 26.544C36.8107 29.0187 34.5067 30.9387 31.52 32.304C28.5333 33.6267 25.0133 34.288 20.96 34.288H13.152V46H0.48V1.2H20.96ZM20.192 24.304C22.7947 24.304 24.7573 23.7493 26.08 22.64C27.4027 21.488 28.064 19.8667 28.064 17.776C28.064 15.6853 27.4027 14.064 26.08 12.912C24.7573 11.76 22.7947 11.184 20.192 11.184H13.152V24.304H20.192ZM66.6265 34.096H59.7145V46H47.0425V1.2H67.5225C71.5758 1.2 75.0958 1.88266 78.0825 3.248C81.0692 4.57066 83.3732 6.49067 84.9945 9.008C86.6158 11.4827 87.4265 14.4053 87.4265 17.776C87.4265 21.0187 86.6585 23.856 85.1225 26.288C83.6292 28.6773 81.4745 30.5547 78.6585 31.92L88.3225 46H74.7545L66.6265 34.096ZM74.6265 17.776C74.6265 15.6853 73.9652 14.064 72.6425 12.912C71.3198 11.76 69.3572 11.184 66.7545 11.184H59.7145V24.304H66.7545C69.3572 24.304 71.3198 23.7493 72.6425 22.64C73.9652 21.488 74.6265 19.8667 74.6265 17.776ZM117.01 46.896C112.274 46.896 108.007 45.8933 104.21 43.888C100.455 41.8827 97.4895 39.1093 95.3135 35.568C93.1802 32.0267 92.1135 28.0373 92.1135 23.6C92.1135 19.1627 93.1802 15.1733 95.3135 11.632C97.4895 8.09067 100.455 5.31733 104.21 3.312C108.007 1.30666 112.274 0.303997 117.01 0.303997C121.746 0.303997 125.991 1.30666 129.746 3.312C133.543 5.31733 136.508 8.09067 138.642 11.632C140.818 15.1733 141.906 19.1627 141.906 23.6C141.906 28.0373 140.818 32.0267 138.642 35.568C136.508 39.1093 133.543 41.8827 129.746 43.888C125.991 45.8933 121.746 46.896 117.01 46.896ZM117.01 36.4C119.271 36.4 121.319 35.8667 123.154 34.8C124.988 33.7333 126.439 32.24 127.506 30.32C128.572 28.3573 129.106 26.1173 129.106 23.6C129.106 21.0827 128.572 18.864 127.506 16.944C126.439 14.9813 124.988 13.4667 123.154 12.4C121.319 11.3333 119.271 10.8 117.01 10.8C114.748 10.8 112.7 11.3333 110.866 12.4C109.031 13.4667 107.58 14.9813 106.514 16.944C105.447 18.864 104.914 21.0827 104.914 23.6C104.914 26.1173 105.447 28.3573 106.514 30.32C107.58 32.24 109.031 33.7333 110.866 34.8C112.7 35.8667 114.748 36.4 117.01 36.4ZM157.397 46.896C154.112 46.896 151.125 46.3413 148.437 45.232C145.749 44.08 143.552 42.4373 141.845 40.304L148.757 32.112C151.146 35.2267 153.728 36.784 156.501 36.784C158.336 36.784 159.722 36.2293 160.661 35.12C161.642 34.0107 162.133 32.3893 162.133 30.256V10.992H146.645V1.2H174.677V29.488C174.677 35.2907 173.205 39.6427 170.261 42.544C167.36 45.4453 163.072 46.896 157.397 46.896ZM219.198 36.208V46H183.23V1.2H218.366V10.992H195.774V18.544H215.678V28.016H195.774V36.208H219.198ZM248.504 46.896C243.81 46.896 239.586 45.9147 235.832 43.952C232.12 41.9467 229.197 39.1733 227.064 35.632C224.93 32.0907 223.864 28.08 223.864 23.6C223.864 19.12 224.93 15.1093 227.064 11.568C229.197 8.02666 232.12 5.27466 235.832 3.312C239.586 1.30666 243.81 0.303997 248.504 0.303997C252.6 0.303997 256.29 1.02933 259.576 2.48C262.861 3.93067 265.592 6.02133 267.768 8.752L259.704 16.048C256.802 12.5493 253.282 10.8 249.144 10.8C246.712 10.8 244.536 11.3333 242.616 12.4C240.738 13.4667 239.266 14.9813 238.2 16.944C237.176 18.864 236.664 21.0827 236.664 23.6C236.664 26.1173 237.176 28.3573 238.2 30.32C239.266 32.24 240.738 33.7333 242.616 34.8C244.536 35.8667 246.712 36.4 249.144 36.4C253.282 36.4 256.802 34.6507 259.704 31.152L267.768 38.448C265.592 41.1787 262.861 43.2693 259.576 44.72C256.29 46.1707 252.6 46.896 248.504 46.896ZM282.579 11.248H268.819V1.2H308.947V11.248H295.251V46H282.579V11.248Z" fill="white"/>
<path d="M31.52 3.248L31.1042 4.15754L31.1151 4.16235L31.52 3.248ZM38.432 9.008L37.5913 9.54949L37.5955 9.55603L38.432 9.008ZM38.432 26.544L39.2685 27.092L38.432 26.544ZM31.52 32.304L31.925 33.2184L31.9358 33.2135L31.52 32.304ZM13.152 34.288V33.288H12.152V34.288H13.152ZM13.152 46V47H14.152V46H13.152ZM0.48 46H-0.52V47H0.48V46ZM0.48 1.2V0.199997H-0.52V1.2H0.48ZM26.08 22.64L26.7226 23.4062L26.7298 23.4002L26.7368 23.3941L26.08 22.64ZM13.152 11.184V10.184H12.152V11.184H13.152ZM13.152 24.304H12.152V25.304H13.152V24.304ZM20.96 2.2C24.9026 2.2 28.2749 2.86406 31.1042 4.15747L31.9358 2.33852C28.7918 0.901267 25.124 0.199997 20.96 0.199997V2.2ZM31.1151 4.16235C33.9401 5.41343 36.0853 7.21121 37.5913 9.54948L39.2727 8.46652C37.536 5.77012 35.0732 3.7279 31.9249 2.33365L31.1151 4.16235ZM37.5955 9.55603C39.0958 11.846 39.864 14.5721 39.864 17.776H41.864C41.864 14.2385 41.0108 11.1194 39.2685 8.45997L37.5955 9.55603ZM39.864 17.776C39.864 20.9799 39.0958 23.706 37.5955 25.996L39.2685 27.092C41.0108 24.4326 41.864 21.3134 41.864 17.776H39.864ZM37.5955 25.996C36.0887 28.2959 33.9389 30.0987 31.1042 31.3945L31.9358 33.2135C35.0745 31.7786 37.5326 29.7414 39.2685 27.092L37.5955 25.996ZM31.1151 31.3896C28.2827 32.644 24.9065 33.288 20.96 33.288V35.288C25.1202 35.288 28.7839 34.6094 31.9249 33.2183L31.1151 31.3896ZM20.96 33.288H13.152V35.288H20.96V33.288ZM12.152 34.288V46H14.152V34.288H12.152ZM13.152 45H0.48V47H13.152V45ZM1.48 46V1.2H-0.52V46H1.48ZM0.48 2.2H20.96V0.199997H0.48V2.2ZM20.192 25.304C22.9149 25.304 25.1481 24.7268 26.7226 23.4062L25.4374 21.8738C24.3666 22.7719 22.6744 23.304 20.192 23.304V25.304ZM26.7368 23.3941C28.3196 22.0155 29.064 20.0949 29.064 17.776H27.064C27.064 19.6384 26.4858 20.9605 25.4232 21.8859L26.7368 23.3941ZM29.064 17.776C29.064 15.4571 28.3196 13.5365 26.7368 12.1579L25.4232 13.6661C26.4858 14.5915 27.064 15.9136 27.064 17.776H29.064ZM26.7368 12.1579C25.1616 10.7859 22.9225 10.184 20.192 10.184V12.184C22.6669 12.184 24.3531 12.7341 25.4232 13.6661L26.7368 12.1579ZM20.192 10.184H13.152V12.184H20.192V10.184ZM12.152 11.184V24.304H14.152V11.184H12.152ZM13.152 25.304H20.192V23.304H13.152V25.304ZM66.6265 34.096L67.4524 33.5321L67.1546 33.096H66.6265V34.096ZM59.7145 34.096V33.096H58.7145V34.096H59.7145ZM59.7145 46V47H60.7145V46H59.7145ZM47.0425 46H46.0425V47H47.0425V46ZM47.0425 1.2V0.199997H46.0425V1.2H47.0425ZM78.0825 3.248L77.6667 4.15754L77.6776 4.16235L78.0825 3.248ZM84.9945 9.008L84.1538 9.54949L84.158 9.55603L84.9945 9.008ZM85.1225 26.288L84.277 25.754L84.2745 25.758L85.1225 26.288ZM78.6585 31.92L78.2222 31.0202L77.1761 31.5274L77.834 32.4859L78.6585 31.92ZM88.3225 46V47H90.2218L89.147 45.4341L88.3225 46ZM74.7545 46L73.9286 46.5639L74.2264 47H74.7545V46ZM59.7145 11.184V10.184H58.7145V11.184H59.7145ZM59.7145 24.304H58.7145V25.304H59.7145V24.304ZM72.6425 22.64L73.2851 23.4062L73.2923 23.4002L73.2993 23.3941L72.6425 22.64ZM66.6265 33.096H59.7145V35.096H66.6265V33.096ZM58.7145 34.096V46H60.7145V34.096H58.7145ZM59.7145 45H47.0425V47H59.7145V45ZM48.0425 46V1.2H46.0425V46H48.0425ZM47.0425 2.2H67.5225V0.199997H47.0425V2.2ZM67.5225 2.2C71.4651 2.2 74.8374 2.86406 77.6667 4.15747L78.4983 2.33852C75.3543 0.901267 71.6865 0.199997 67.5225 0.199997V2.2ZM77.6776 4.16235C80.5026 5.41343 82.6478 7.21121 84.1538 9.54948L85.8352 8.46652C84.0985 5.77012 81.6357 3.7279 78.4874 2.33365L77.6776 4.16235ZM84.158 9.55603C85.6583 11.846 86.4265 14.5721 86.4265 17.776H88.4265C88.4265 14.2385 87.5733 11.1194 85.831 8.45997L84.158 9.55603ZM86.4265 17.776C86.4265 20.8544 85.6996 23.5015 84.277 25.754L85.968 26.822C87.6174 24.2105 88.4265 21.1829 88.4265 17.776H86.4265ZM84.2745 25.758C82.8917 27.9705 80.8883 29.7276 78.2222 31.0202L79.0948 32.8198C82.0607 31.3818 84.3666 29.3842 85.9705 26.818L84.2745 25.758ZM77.834 32.4859L87.498 46.5659L89.147 45.4341L79.483 31.3541L77.834 32.4859ZM88.3225 45H74.7545V47H88.3225V45ZM75.5804 45.4361L67.4524 33.5321L65.8007 34.6599L73.9286 46.5639L75.5804 45.4361ZM75.6265 17.776C75.6265 15.4571 74.8821 13.5365 73.2993 12.1579L71.9857 13.6661C73.0483 14.5915 73.6265 15.9136 73.6265 17.776H75.6265ZM73.2993 12.1579C71.7241 10.7859 69.485 10.184 66.7545 10.184V12.184C69.2294 12.184 70.9156 12.7341 71.9857 13.6661L73.2993 12.1579ZM66.7545 10.184H59.7145V12.184H66.7545V10.184ZM58.7145 11.184V24.304H60.7145V11.184H58.7145ZM59.7145 25.304H66.7545V23.304H59.7145V25.304ZM66.7545 25.304C69.4774 25.304 71.7106 24.7268 73.2851 23.4062L71.9999 21.8738C70.9291 22.7719 69.2369 23.304 66.7545 23.304V25.304ZM73.2993 23.3941C74.8821 22.0155 75.6265 20.0949 75.6265 17.776H73.6265C73.6265 19.6384 73.0483 20.9605 71.9857 21.8859L73.2993 23.3941ZM104.21 43.888L103.738 44.7701L103.743 44.7723L104.21 43.888ZM95.3135 35.568L94.4569 36.084L94.4615 36.0915L95.3135 35.568ZM95.3135 11.632L94.4615 11.1085L94.4569 11.116L95.3135 11.632ZM104.21 3.312L103.743 2.42772L103.738 2.42992L104.21 3.312ZM129.745 3.312L129.274 4.19408L129.279 4.19627L129.745 3.312ZM138.642 11.632L137.785 12.148L137.789 12.1555L138.642 11.632ZM138.642 35.568L137.789 35.0445L137.785 35.052L138.642 35.568ZM129.745 43.888L129.279 43.0037L129.274 43.0059L129.745 43.888ZM123.154 34.8L123.656 35.6645L123.154 34.8ZM127.505 30.32L128.38 30.8057L128.384 30.7975L127.505 30.32ZM127.505 16.944L126.627 17.4215L126.631 17.4296L127.505 16.944ZM123.154 12.4L123.656 11.5355H123.656L123.154 12.4ZM110.866 12.4L110.363 11.5355H110.363L110.866 12.4ZM106.514 16.944L107.388 17.4297L107.392 17.4215L106.514 16.944ZM106.514 30.32L105.635 30.7975L105.639 30.8056L106.514 30.32ZM110.866 34.8L111.368 33.9355L110.866 34.8ZM117.009 45.896C112.419 45.896 108.316 44.9255 104.676 43.0037L103.743 44.7723C107.698 46.8612 112.128 47.896 117.009 47.896V45.896ZM104.681 43.0059C101.079 41.0821 98.2463 38.4308 96.1655 35.0445L94.4615 36.0915C96.7327 39.7878 99.8311 42.6833 103.738 44.7701L104.681 43.0059ZM96.1701 35.052C94.1375 31.6779 93.1135 27.8693 93.1135 23.6H91.1135C91.1135 28.2053 92.2229 32.3755 94.4569 36.084L96.1701 35.052ZM93.1135 23.6C93.1135 19.3307 94.1375 15.5221 96.1701 12.148L94.4569 11.116C92.2229 14.8245 91.1135 18.9947 91.1135 23.6H93.1135ZM96.1655 12.1555C98.2463 8.76916 101.079 6.11792 104.681 4.19407L103.738 2.42992C99.8311 4.51675 96.7327 7.41217 94.4615 11.1085L96.1655 12.1555ZM104.676 4.19627C108.316 2.27452 112.419 1.304 117.009 1.304V-0.696003C112.128 -0.696003 107.698 0.338804 103.743 2.42773L104.676 4.19627ZM117.009 1.304C121.6 1.304 125.68 2.27457 129.274 4.19407L130.217 2.42992C126.301 0.338757 121.891 -0.696003 117.009 -0.696003V1.304ZM129.279 4.19627C132.921 6.12004 135.749 8.76881 137.785 12.148L139.498 11.116C137.267 7.41253 134.164 4.51462 130.212 2.42773L129.279 4.19627ZM137.789 12.1555C139.862 15.5287 140.906 19.3345 140.906 23.6H142.906C142.906 18.9908 141.773 14.818 139.494 11.1085L137.789 12.1555ZM140.906 23.6C140.906 27.8655 139.862 31.6713 137.789 35.0445L139.494 36.0915C141.773 32.382 142.906 28.2092 142.906 23.6H140.906ZM137.785 35.052C135.749 38.4312 132.921 41.08 129.279 43.0037L130.212 44.7723C134.164 42.6854 137.267 39.7875 139.498 36.084L137.785 35.052ZM129.274 43.0059C125.68 44.9254 121.6 45.896 117.009 45.896V47.896C121.891 47.896 126.301 46.8612 130.217 44.7701L129.274 43.0059ZM117.009 37.4C119.435 37.4 121.659 36.8258 123.656 35.6645L122.651 33.9355C120.979 34.9076 119.106 35.4 117.009 35.4V37.4ZM123.656 35.6645C125.652 34.5041 127.229 32.8773 128.38 30.8056L126.631 29.8344C125.649 31.6027 124.324 32.9626 122.651 33.9355L123.656 35.6645ZM128.384 30.7975C129.54 28.6705 130.105 26.2626 130.105 23.6H128.105C128.105 25.972 127.604 28.0442 126.627 29.8425L128.384 30.7975ZM130.105 23.6C130.105 20.9378 129.54 18.5474 128.38 16.4584L126.631 17.4296C127.604 19.1806 128.105 21.2275 128.105 23.6H130.105ZM128.384 16.4665C127.235 14.3516 125.658 12.6992 123.656 11.5355L122.651 13.2645C124.319 14.2341 125.643 15.611 126.627 17.4215L128.384 16.4665ZM123.656 11.5355C121.659 10.3742 119.435 9.8 117.009 9.8V11.8C119.106 11.8 120.979 12.2924 122.651 13.2645L123.656 11.5355ZM117.009 9.8C114.584 9.8 112.36 10.3742 110.363 11.5355L111.368 13.2645C113.04 12.2924 114.913 11.8 117.009 11.8V9.8ZM110.363 11.5355C108.361 12.6992 106.784 14.3516 105.635 16.4665L107.392 17.4215C108.376 15.611 109.7 14.2341 111.368 13.2645L110.363 11.5355ZM105.639 16.4584C104.479 18.5474 103.913 20.9378 103.913 23.6H105.913C105.913 21.2275 106.415 19.1806 107.388 17.4296L105.639 16.4584ZM103.913 23.6C103.913 26.2626 104.479 28.6705 105.635 30.7975L107.392 29.8425C106.415 28.0442 105.913 25.972 105.913 23.6H103.913ZM105.639 30.8056C106.79 32.8773 108.367 34.5041 110.363 35.6645L111.368 33.9355C109.695 32.9626 108.37 31.6027 107.388 29.8344L105.639 30.8056ZM110.363 35.6645C112.36 36.8258 114.584 37.4 117.009 37.4V35.4C114.913 35.4 113.04 34.9076 111.368 33.9355L110.363 35.6645ZM148.437 45.232L148.043 46.1512L148.056 46.1564L148.437 45.232ZM141.845 40.304L141.081 39.6591L140.551 40.2871L141.064 40.9287L141.845 40.304ZM148.757 32.112L149.55 31.5033L148.794 30.5174L147.993 31.4671L148.757 32.112ZM160.661 35.12L159.912 34.4574L159.905 34.4657L159.898 34.4741L160.661 35.12ZM162.133 10.992H163.133V9.992H162.133V10.992ZM146.645 10.992H145.645V11.992H146.645V10.992ZM146.645 1.2V0.199997H145.645V1.2H146.645ZM174.677 1.2H175.677V0.199997H174.677V1.2ZM170.261 42.544L169.559 41.8317L169.554 41.8369L170.261 42.544ZM157.397 45.896C154.226 45.896 151.371 45.361 148.818 44.3076L148.056 46.1564C150.879 47.3217 153.998 47.896 157.397 47.896V45.896ZM148.831 44.3129C146.283 43.221 144.223 41.6751 142.626 39.6793L141.064 40.9287C142.881 43.1995 145.215 44.939 148.043 46.1511L148.831 44.3129ZM142.609 40.9489L149.521 32.7569L147.993 31.4671L141.081 39.6591L142.609 40.9489ZM147.964 32.7207C150.459 35.9738 153.302 37.784 156.501 37.784V35.784C154.153 35.784 151.834 34.4796 149.55 31.5033L147.964 32.7207ZM156.501 37.784C158.546 37.784 160.248 37.1566 161.424 35.7659L159.898 34.4741C159.197 35.302 158.125 35.784 156.501 35.784V37.784ZM161.41 35.7826C162.612 34.4241 163.133 32.5274 163.133 30.256H161.133C161.133 32.2513 160.673 33.5972 159.912 34.4574L161.41 35.7826ZM163.133 30.256V10.992H161.133V30.256H163.133ZM162.133 9.992H146.645V11.992H162.133V9.992ZM147.645 10.992V1.2H145.645V10.992H147.645ZM146.645 2.2H174.677V0.199997H146.645V2.2ZM173.677 1.2V29.488H175.677V1.2H173.677ZM173.677 29.488C173.677 35.1328 172.246 39.1835 169.559 41.8317L170.963 43.2562C174.164 40.1018 175.677 35.4485 175.677 29.488H173.677ZM169.554 41.8369C166.902 44.4883 162.91 45.896 157.397 45.896V47.896C163.233 47.896 167.817 46.4023 170.968 43.2511L169.554 41.8369ZM219.198 36.208H220.198V35.208H219.198V36.208ZM219.198 46V47H220.198V46H219.198ZM183.23 46H182.23V47H183.23V46ZM183.23 1.2V0.199997H182.23V1.2H183.23ZM218.366 1.2H219.366V0.199997H218.366V1.2ZM218.366 10.992V11.992H219.366V10.992H218.366ZM195.774 10.992V9.992H194.774V10.992H195.774ZM195.774 18.544H194.774V19.544H195.774V18.544ZM215.678 18.544H216.678V17.544H215.678V18.544ZM215.678 28.016V29.016H216.678V28.016H215.678ZM195.774 28.016V27.016H194.774V28.016H195.774ZM195.774 36.208H194.774V37.208H195.774V36.208ZM218.198 36.208V46H220.198V36.208H218.198ZM219.198 45H183.23V47H219.198V45ZM184.23 46V1.2H182.23V46H184.23ZM183.23 2.2H218.366V0.199997H183.23V2.2ZM217.366 1.2V10.992H219.366V1.2H217.366ZM218.366 9.992H195.774V11.992H218.366V9.992ZM194.774 10.992V18.544H196.774V10.992H194.774ZM195.774 19.544H215.678V17.544H195.774V19.544ZM214.678 18.544V28.016H216.678V18.544H214.678ZM215.678 27.016H195.774V29.016H215.678V27.016ZM194.774 28.016V36.208H196.774V28.016H194.774ZM195.774 37.208H219.198V35.208H195.774V37.208ZM235.831 43.952L235.356 44.8319L235.368 44.8382L235.831 43.952ZM227.064 35.632L227.92 35.116L227.064 35.632ZM227.064 11.568L226.207 11.052L227.064 11.568ZM235.831 3.312L236.299 4.19604L236.303 4.19407L235.831 3.312ZM259.576 2.48L259.172 3.39479V3.39479L259.576 2.48ZM267.768 8.752L268.438 9.49353L269.135 8.86336L268.55 8.1288L267.768 8.752ZM259.703 16.048L258.934 16.6863L259.6 17.49L260.374 16.7895L259.703 16.048ZM242.616 12.4L242.13 11.5258L242.121 11.5305L242.616 12.4ZM238.199 16.944L237.321 16.4665L237.317 16.4734L238.199 16.944ZM238.199 30.32L237.313 30.7826L237.319 30.7942L237.325 30.8056L238.199 30.32ZM242.616 34.8L242.121 35.6695L242.13 35.6742L242.616 34.8ZM259.703 31.152L260.374 30.4105L259.6 29.71L258.934 30.5137L259.703 31.152ZM267.768 38.448L268.55 39.0712L269.135 38.3366L268.438 37.7065L267.768 38.448ZM259.576 44.72L259.172 43.8052L259.576 44.72ZM248.504 45.896C243.954 45.896 239.892 44.9459 236.295 43.0658L235.368 44.8382C239.281 46.8834 243.667 47.896 248.504 47.896V45.896ZM236.307 43.0722C232.749 41.15 229.959 38.5009 227.92 35.116L226.207 36.148C228.434 39.8458 231.49 42.7433 235.356 44.8318L236.307 43.0722ZM227.92 35.116C225.888 31.7434 224.863 27.9139 224.863 23.6H222.863C222.863 28.2461 223.972 32.438 226.207 36.148L227.92 35.116ZM224.863 23.6C224.863 19.2861 225.888 15.4566 227.92 12.084L226.207 11.052C223.972 14.762 222.863 18.9539 222.863 23.6H224.863ZM227.92 12.084C229.958 8.701 232.745 6.07509 236.299 4.19603L235.364 2.42796C231.494 4.47423 228.436 7.35233 226.207 11.052L227.92 12.084ZM236.303 4.19407C239.898 2.27388 243.957 1.304 248.504 1.304V-0.696003C243.663 -0.696003 239.274 0.339451 235.36 2.42992L236.303 4.19407ZM248.504 1.304C252.48 1.304 256.03 2.00768 259.172 3.39479L259.979 1.56521C256.55 0.0509815 252.719 -0.696003 248.504 -0.696003V1.304ZM259.172 3.39479C262.314 4.78215 264.913 6.77453 266.985 9.3752L268.55 8.1288C266.27 5.26813 263.408 3.07918 259.979 1.56521L259.172 3.39479ZM267.097 8.01046L259.033 15.3065L260.374 16.7895L268.438 9.49353L267.097 8.01046ZM260.473 15.4097C257.403 11.7074 253.611 9.8 249.143 9.8V11.8C252.953 11.8 256.201 13.3912 258.934 16.6863L260.473 15.4097ZM249.143 9.8C246.56 9.8 244.214 10.368 242.13 11.5258L243.101 13.2742C244.857 12.2986 246.863 11.8 249.143 11.8V9.8ZM242.121 11.5305C240.076 12.6927 238.473 14.3458 237.321 16.4665L239.078 17.4215C240.059 15.6169 241.4 14.2406 243.11 13.2695L242.121 11.5305ZM237.317 16.4734C236.205 18.5595 235.663 20.9444 235.663 23.6H237.663C237.663 21.2209 238.146 19.1685 239.082 17.4146L237.317 16.4734ZM235.663 23.6C235.663 26.2561 236.205 28.6586 237.313 30.7826L239.086 29.8574C238.146 28.0561 237.663 25.9785 237.663 23.6H235.663ZM237.325 30.8056C238.479 32.8831 240.082 34.5105 242.121 35.6695L243.11 33.9305C241.395 32.9562 240.053 31.5969 239.074 29.8344L237.325 30.8056ZM242.13 35.6742C244.214 36.832 246.56 37.4 249.143 37.4V35.4C246.863 35.4 244.857 34.9014 243.101 33.9258L242.13 35.6742ZM249.143 37.4C253.611 37.4 257.403 35.4926 260.473 31.7903L258.934 30.5137C256.201 33.8088 252.953 35.4 249.143 35.4V37.4ZM259.033 31.8935L267.097 39.1895L268.438 37.7065L260.374 30.4105L259.033 31.8935ZM266.985 37.8248C264.913 40.4255 262.314 42.4178 259.172 43.8052L259.979 45.6348C263.408 44.1208 266.27 41.9319 268.55 39.0712L266.985 37.8248ZM259.172 43.8052C256.03 45.1923 252.48 45.896 248.504 45.896V47.896C252.719 47.896 256.55 47.149 259.979 45.6348L259.172 43.8052ZM282.578 11.248H283.578V10.248H282.578V11.248ZM268.819 11.248H267.819V12.248H268.819V11.248ZM268.819 1.2V0.199997H267.819V1.2H268.819ZM308.947 1.2H309.947V0.199997H308.947V1.2ZM308.947 11.248V12.248H309.947V11.248H308.947ZM295.25 11.248V10.248H294.25V11.248H295.25ZM295.25 46V47H296.25V46H295.25ZM282.578 46H281.578V47H282.578V46ZM282.578 10.248H268.819V12.248H282.578V10.248ZM269.819 11.248V1.2H267.819V11.248H269.819ZM268.819 2.2H308.947V0.199997H268.819V2.2ZM307.947 1.2V11.248H309.947V1.2H307.947ZM308.947 10.248H295.25V12.248H308.947V10.248ZM294.25 11.248V46H296.25V11.248H294.25ZM295.25 45H282.578V47H295.25V45ZM283.578 46V11.248H281.578V46H283.578Z" fill="white"/>
</svg>
