<svg width="70" height="70" viewBox="0 0 70 70" fill="none" xmlns="http://www.w3.org/2000/svg">
<circle cx="35" cy="35" r="33" fill="#333333" stroke="#333333" stroke-width="4"/>
<path d="M46.9238 41.431C46.476 41.4319 46.042 41.2759 45.6971 40.9902L35.4238 32.4035L25.1313 40.6835C24.9353 40.8427 24.7097 40.9616 24.4675 41.0334C24.2254 41.1051 23.9714 41.1283 23.7203 41.1016C23.4692 41.0749 23.2258 40.9988 23.0041 40.8777C22.7825 40.7566 22.587 40.5929 22.4288 40.396C22.2696 40.2 22.1507 39.9744 22.079 39.7322C22.0072 39.4901 21.984 39.2361 22.0108 38.985C22.0375 38.7339 22.1136 38.4905 22.2346 38.2688C22.3557 38.0472 22.5194 37.8517 22.7163 37.6935L34.2163 28.436C34.5593 28.1541 34.9894 28 35.4334 28C35.8773 28 36.3075 28.1541 36.6505 28.436L48.1505 38.0194C48.3446 38.1803 48.505 38.3779 48.6226 38.6009C48.7402 38.8239 48.8126 39.0679 48.8358 39.3189C48.8589 39.5699 48.8323 39.8231 48.7575 40.0638C48.6826 40.3046 48.561 40.5282 48.3996 40.7219C48.2213 40.9417 47.9964 41.1193 47.7413 41.242C47.4861 41.3646 47.2069 41.4291 46.9238 41.431Z" fill="white"/>
</svg>
